<?xml version="1.0" encoding="UTF-8"?>
<svg xmlns="http://www.w3.org/2000/svg" width="282" height="172" viewBox="0 0 282 172" fill="none">
  <g clip-path="url(#clip0_1861_24347)">
    <rect width="282" height="172" fill="#1F2852"></rect>
    <path d="M66.2841 84.6147C61.7229 84.6147 58.292 86.0326 55.9717 89.3088V67.8511C55.9717 67.6072 55.7754 67.4109 55.5315 67.4109H51.4403C51.1963 67.4109 51 67.6072 51 67.8511V117.563C51 117.807 51.1963 118.003 51.4403 118.003H55.5275C55.7714 118.003 55.9678 117.807 55.9678 117.563V113.767C57.1041 115.357 58.643 116.619 60.4259 117.418C62.2722 118.225 64.2692 118.632 66.2841 118.608C70.5597 118.608 73.9013 117.114 76.3089 114.128C78.7164 111.141 79.9202 106.949 79.9202 101.551C79.9202 96.1526 78.7263 91.986 76.3386 89.039C73.9509 86.0921 70.5994 84.6166 66.2841 84.6147V84.6147ZM72.8721 110.449C71.3986 112.529 69.1577 113.569 66.1512 113.569C62.8096 113.569 60.3823 112.642 58.8691 110.792C57.356 108.942 56.5984 105.862 56.6004 101.555C56.6004 97.2532 57.3381 94.1932 58.8116 92.3767C60.2851 90.5601 62.6946 89.6518 66.0382 89.6518C69.1239 89.6518 71.4046 90.6295 72.878 92.5849C74.3515 94.5403 75.0892 97.511 75.0892 101.497C75.0853 105.39 74.3456 108.375 72.8721 110.451V110.449Z" fill="white"></path>
    <path d="M155.704 84.5571C149.754 84.5571 146.161 87.3335 145.155 89.2116V85.6062C145.155 85.3623 144.959 85.166 144.715 85.166H140.62C140.376 85.166 140.18 85.3623 140.18 85.6062V117.563C140.18 117.807 140.376 118.003 140.62 118.003H144.715C144.959 118.003 145.155 117.807 145.155 117.563V101.212C145.155 96.9359 145.955 93.87 147.553 92.0118C149.151 90.1536 151.668 88.7852 155.105 88.7852C157.701 88.7852 159.609 89.4456 160.828 90.7683C162.048 92.0911 162.657 94.0881 162.657 96.7614V117.563C162.657 117.807 162.853 118.003 163.097 118.003H167.192C167.436 118.003 167.632 117.807 167.632 117.563V96.575C167.632 92.3806 166.633 89.3286 164.636 87.4188C162.639 85.509 159.66 84.5551 155.704 84.5571V84.5571Z" fill="white"></path>
    <path d="M197.062 86.0861C195.987 85.634 194.867 85.2929 193.723 85.0668C192.168 84.7297 190.583 84.5591 188.993 84.5571C184.1 84.5571 180.332 86.0564 177.689 89.0529C175.045 92.0494 173.723 96.2954 173.723 101.789C173.723 107.282 175.026 111.284 177.633 114.211C180.241 117.138 183.922 118.602 188.676 118.602C191.89 118.602 194.575 118.072 196.731 117.015C196.882 116.94 196.975 116.787 196.975 116.619V113.134C196.973 112.89 196.775 112.696 196.531 112.698C196.479 112.698 196.428 112.708 196.38 112.726C193.889 113.711 191.24 114.231 188.561 114.257C185.364 114.257 182.952 113.178 181.324 111.02C179.696 108.863 178.875 105.765 178.859 101.729C178.859 93.2195 182.195 88.9637 188.868 88.9637C190.03 88.9835 191.184 89.1283 192.315 89.398C193.393 89.636 194.452 89.9473 195.488 90.332C195.712 90.4193 195.966 90.3063 196.051 90.0822L196.055 90.0723L197.296 86.6414C197.376 86.4233 197.274 86.1813 197.062 86.0861V86.0861Z" fill="white"></path>
    <path d="M131.007 86.3459C129.119 84.6067 126.218 83.738 122.301 83.738C120.344 83.74 118.396 83.9919 116.503 84.4877C114.785 84.9259 113.121 85.5566 111.545 86.3677C111.346 86.4748 111.261 86.7167 111.346 86.9249L112.552 89.9274C112.645 90.1515 112.903 90.2586 113.127 90.1654C113.133 90.1634 113.141 90.1595 113.147 90.1575C116.433 88.6146 119.388 87.8431 122.014 87.8431C124.451 87.8431 126.224 88.4579 127.333 89.6855C128.088 90.5224 128.747 92.2636 128.82 93.8005L124.223 93.8362C122.276 93.8521 119.969 93.9889 117.629 94.8972C115.503 95.6964 113.585 96.9656 112.019 98.6116C109.556 101.243 108.346 104.807 108.699 108.392C109.032 111.825 110.722 114.36 113.458 116.325C115.523 117.799 117.996 118.59 120.532 118.592C121.869 118.596 123.198 118.368 124.459 117.921C126.149 117.321 127.693 116.371 128.992 115.133V117.553C128.992 117.797 129.189 117.993 129.433 117.993H133.399C133.643 117.993 133.839 117.797 133.839 117.553V94.9269C133.839 91.0915 132.895 88.0831 131.007 86.3459V86.3459ZM129.084 103.633C129.068 107.901 126.944 112.585 122.67 114.108C120.352 114.895 117.798 114.52 115.805 113.096C112.064 110.395 111.979 104.89 115.021 101.646C116.146 100.48 117.518 99.5794 119.037 99.0102C120.683 98.3716 122.408 98.2546 124.158 98.2408L129.098 98.2527C129.102 98.2784 129.084 103.633 129.084 103.633V103.633Z" fill="white"></path>
    <path d="M104.598 85.158C103.422 84.9914 102.236 84.912 101.05 84.92C95.2077 85.1302 91.0887 88.8863 91.1026 89.269V85.8977C91.1026 85.6537 90.9063 85.4574 90.6624 85.4554H86.5692C86.3252 85.4554 86.1289 85.6518 86.1289 85.8957V117.864C86.1289 118.108 86.3252 118.304 86.5692 118.304H90.6644C90.9083 118.304 91.1046 118.108 91.1046 117.864V100.678C91.1046 97.4614 92.0486 94.7742 93.9365 92.6166C95.8245 90.4589 98.0972 89.3801 100.755 89.3801C101.81 89.3939 102.861 89.5129 103.892 89.7331C104.132 89.7826 104.366 89.6299 104.415 89.39C104.415 89.382 104.417 89.3741 104.419 89.3682L104.975 85.6537C105.008 85.4138 104.84 85.1917 104.598 85.158V85.158Z" fill="white"></path>
    <path d="M228.003 87.4207C226.006 85.513 223.031 84.5591 219.079 84.5591C213.129 84.5591 209.536 87.3355 208.53 89.2135L208.3 82.8298L213.643 79.5536C215.495 80.8427 218.043 80.3846 219.333 78.5323C220.622 76.68 220.163 74.1317 218.311 72.8427C216.459 71.5536 213.911 72.0117 212.622 73.864C212.013 74.7385 211.771 75.8174 211.945 76.8704L208.177 79.2026L207.91 71.4981L213.167 68.2814C215.261 69.8521 218.232 69.4257 219.803 67.3315C221.373 65.2373 220.947 62.2666 218.853 60.6959C216.758 59.1253 213.788 59.5516 212.217 61.6458C211.364 62.7842 211.067 64.2438 211.408 65.624L207.783 67.867L207.569 61.7192C209.788 60.8625 210.892 58.3677 210.036 56.1486C209.179 53.9294 206.684 52.8248 204.465 53.6815C202.246 54.5383 201.141 57.033 201.998 59.2522C202.436 60.3846 203.331 61.2809 204.465 61.7192L204.068 74.4649L200.13 71.9542C200.754 69.2671 199.083 66.5819 196.395 65.9572C193.708 65.3325 191.023 67.0043 190.398 69.6914C189.774 72.3786 191.446 75.0638 194.133 75.6885C195.66 76.0435 197.264 75.6607 198.466 74.6572L203.957 78.1317L203.672 87.4525L203.519 92.4103V117.563C203.519 117.806 203.715 118.003 203.959 118.003H208.082C208.326 118.003 208.522 117.806 208.522 117.563V101.212C208.522 96.9359 209.322 93.8699 210.92 92.0117C212.395 90.2943 214.66 88.9993 217.704 88.8109C217.926 88.8109 218.145 88.7891 218.377 88.7871H218.456C221.046 88.7871 222.95 89.4475 224.167 90.7703C225.385 92.093 225.994 94.0901 225.996 96.7633V113.007V117.568C225.996 117.812 226.192 118.009 226.436 118.009H230.559C230.803 118.009 230.999 117.812 230.999 117.568V96.5829C230.999 92.3826 230.002 89.3285 228.003 87.4207V87.4207ZM215.862 73.9056C217.177 73.9056 218.242 74.9706 218.242 76.2854C218.242 77.6002 217.177 78.6652 215.862 78.6652C214.547 78.6652 213.482 77.6002 213.482 76.2854C213.482 74.9706 214.547 73.9056 215.862 73.9056ZM214.87 62.0068C216.257 61.3305 217.928 61.9076 218.603 63.2938C219.279 64.68 218.702 66.3518 217.316 67.0261C215.929 67.7004 214.26 67.1253 213.583 65.739C212.909 64.3508 213.49 62.6791 214.878 62.0048H214.87V62.0068ZM195.273 73.8263C193.611 73.8263 192.263 72.4778 192.263 70.8159C192.263 69.154 193.611 67.8055 195.273 67.8055C196.935 67.8055 198.283 69.154 198.283 70.8159C198.281 72.4778 196.935 73.8243 195.273 73.8263ZM203.404 57.6954C203.404 56.2517 204.572 55.0816 206.016 55.0796C207.459 55.0796 208.629 56.2477 208.631 57.6914C208.631 59.1352 207.463 60.3052 206.02 60.3072H206.018C204.574 60.3072 203.404 59.1391 203.402 57.6954H203.404Z" fill="white"></path>
  </g>
  <defs>
    <clipPath id="clip0_1861_24347">
      <rect width="282" height="172" fill="white"></rect>
    </clipPath>
  </defs>
</svg>
